HIERARCHY
ROOT Hips
{
	OFFSET 0.000000 71.427986 0.000000
	CHANNELS 6 Xposition Yposition Zposition Xrotation Yrotation Zrotation
	JOINT Pelvis
	{
		OFFSET 0.000000 0.000000 0.000000
		CHANNELS 3 Xrotation Yrotation Zrotation
		JOINT LeftUpLeg
		{
			OFFSET 6.797100 -2.508499 -1.318700
			CHANNELS 3 Xrotation Yrotation Zrotation
			JOINT LeftLeg
			{
				OFFSET 0.069008 -29.241863 0.690200
				CHANNELS 3 Xrotation Yrotation Zrotation
				JOINT LeftFoot
				{
					OFFSET -0.069008 -29.568123 -0.266800
					CHANNELS 3 Xrotation Yrotation Zrotation
					JOINT LeftToeBase
					{
						OFFSET 3.145500 -8.631000 16.059900
						CHANNELS 3 Xrotation Yrotation Zrotation
						End Site
						{
							OFFSET 0.000000 18.501587 0.000000
						}
					}
				}
			}
			JOINT Left_ShortSleeve
			{
				OFFSET 0.265923 -10.480953 1.153800
				CHANNELS 3 Xrotation Yrotation Zrotation
				End Site
				{
					OFFSET 1.725763 19.823879 0.000000
				}
			}
		}
		JOINT RightUpLeg
		{
			OFFSET -6.797100 -2.508499 -1.318700
			CHANNELS 3 Xrotation Yrotation Zrotation
			JOINT RightLeg
			{
				OFFSET -0.082453 -29.241932 0.688000
				CHANNELS 3 Xrotation Yrotation Zrotation
				JOINT RightFoot
				{
					OFFSET 0.082453 -29.568058 -0.264600
					CHANNELS 3 Xrotation Yrotation Zrotation
					JOINT RightToeBase
					{
						OFFSET -3.115300 -8.682800 16.113400
						CHANNELS 3 Xrotation Yrotation Zrotation
						End Site
						{
							OFFSET 0.000000 18.567114 0.000000
						}
					}
				}
			}
			JOINT Right_ShortSleeve
			{
				OFFSET -0.265923 -10.480953 1.153800
				CHANNELS 3 Xrotation Yrotation Zrotation
				End Site
				{
					OFFSET -1.725766 19.823910 0.000000
				}
			}
		}
	}
	JOINT Spine
	{
		OFFSET 0.000000 13.368103 0.470500
		CHANNELS 3 Xrotation Yrotation Zrotation
		JOINT Spine1
		{
			OFFSET 0.147000 13.837402 0.538800
			CHANNELS 3 Xrotation Yrotation Zrotation
			JOINT Spine2
			{
				OFFSET 0.168000 16.242897 -1.435500
				CHANNELS 3 Xrotation Yrotation Zrotation
				JOINT Neck
				{
					OFFSET 0.217200 18.631500 -1.679100
					CHANNELS 3 Xrotation Yrotation Zrotation
					JOINT Head
					{
						OFFSET 0.000000 6.599396 1.385900
						CHANNELS 3 Xrotation Yrotation Zrotation
						JOINT Hat
						{
							OFFSET -0.532200 27.220596 -10.096100
							CHANNELS 3 Xrotation Yrotation Zrotation
							End Site
							{
								OFFSET 0.000000 22.029861 0.000000
							}
						}
						JOINT HairD
						{
							OFFSET -10.777400 17.437393 -1.325900
							CHANNELS 3 Xrotation Yrotation Zrotation
							JOINT HairD1
							{
								OFFSET -3.290299 -11.051193 1.062200
								CHANNELS 3 Xrotation Yrotation Zrotation
								End Site
								{
									OFFSET 0.000000 11.579437 0.000000
								}
							}
						}
						JOINT HairB
						{
							OFFSET -10.777400 17.437393 1.467900
							CHANNELS 3 Xrotation Yrotation Zrotation
							JOINT HairB1
							{
								OFFSET -1.561200 -12.956299 3.590200
								CHANNELS 3 Xrotation Yrotation Zrotation
								End Site
								{
									OFFSET 0.000000 13.534866 0.000000
								}
							}
						}
						JOINT HairA
						{
							OFFSET 9.713100 17.437393 1.467900
							CHANNELS 3 Xrotation Yrotation Zrotation
							JOINT HairA1
							{
								OFFSET 1.561200 -12.956299 3.590200
								CHANNELS 3 Xrotation Yrotation Zrotation
								End Site
								{
									OFFSET 0.000000 13.534866 0.000000
								}
							}
						}
						JOINT HairC
						{
							OFFSET 9.713100 17.437393 -1.325900
							CHANNELS 3 Xrotation Yrotation Zrotation
							JOINT HairC1
							{
								OFFSET 3.290300 -11.051193 1.062200
								CHANNELS 3 Xrotation Yrotation Zrotation
								End Site
								{
									OFFSET 0.000000 11.579437 0.000000
								}
							}
						}
					}
				}
				JOINT LeftShoulder
				{
					OFFSET 5.101800 15.108002 -2.763700
					CHANNELS 3 Xrotation Yrotation Zrotation
					JOINT LeftArm
					{
						OFFSET 9.825497 2.506317 -1.597400
						CHANNELS 3 Xrotation Yrotation Zrotation
						JOINT LeftForeArm
						{
							OFFSET 21.966244 0.000000 0.000000
							CHANNELS 3 Xrotation Yrotation Zrotation
							JOINT LeftHand
							{
								OFFSET 33.879036 0.000000 0.000000
								CHANNELS 3 Xrotation Yrotation Zrotation
								JOINT LeftHandThumb1
								{
									OFFSET 6.715286 -2.359680 3.363841
									CHANNELS 3 Xrotation Yrotation Zrotation
									JOINT LeftHandThumb2
									{
										OFFSET 2.507072 -1.447464 1.447461
										CHANNELS 3 Xrotation Yrotation Zrotation
										JOINT LeftHandThumb3
										{
											OFFSET 2.898338 -1.673355 1.673357
											CHANNELS 3 Xrotation Yrotation Zrotation
											End Site
											{
												OFFSET -0.295959 3.727692 -0.131651
											}
										}
									}
								}
								JOINT LeftHandIndex1
								{
									OFFSET 14.190811 -0.254547 3.840278
									CHANNELS 3 Xrotation Yrotation Zrotation
									JOINT LeftHandIndex2
									{
										OFFSET 3.551727 0.000000 -0.000000
										CHANNELS 3 Xrotation Yrotation Zrotation
										JOINT LeftHandIndex3
										{
											OFFSET 2.894196 0.000000 0.000000
											CHANNELS 3 Xrotation Yrotation Zrotation
											End Site
											{
												OFFSET -1.000603 2.690872 0.366626
											}
										}
									}
								}
								JOINT LeftHandMiddle1
								{
									OFFSET 13.776489 0.000000 0.000000
									CHANNELS 3 Xrotation Yrotation Zrotation
									JOINT LeftHandMiddle2
									{
										OFFSET 3.438232 0.000000 0.000000
										CHANNELS 3 Xrotation Yrotation Zrotation
										JOINT LeftHandMiddle3
										{
											OFFSET 3.691551 0.000000 0.000000
											CHANNELS 3 Xrotation Yrotation Zrotation
											End Site
											{
												OFFSET -1.082298 3.499527 0.457670
											}
										}
									}
								}
								JOINT LeftHandRing1
								{
									OFFSET 13.966164 -0.268127 -3.067488
									CHANNELS 3 Xrotation Yrotation Zrotation
									JOINT LeftHandRing2
									{
										OFFSET 3.162567 0.000000 0.000000
										CHANNELS 3 Xrotation Yrotation Zrotation
										JOINT LeftHandRing3
										{
											OFFSET 3.324348 0.000000 0.000000
											CHANNELS 3 Xrotation Yrotation Zrotation
											End Site
											{
												OFFSET -0.861900 3.184998 0.405154
											}
										}
									}
								}
								JOINT LeftHandPinky1
								{
									OFFSET 13.131393 -0.168503 -5.746925
									CHANNELS 3 Xrotation Yrotation Zrotation
									JOINT LeftHandPinky2
									{
										OFFSET 2.849182 0.000000 0.000000
										CHANNELS 3 Xrotation Yrotation Zrotation
										JOINT LeftHandPinky3
										{
											OFFSET 2.805038 0.000000 0.000000
											CHANNELS 3 Xrotation Yrotation Zrotation
											End Site
											{
												OFFSET -0.882500 2.642609 0.325652
											}
										}
									}
								}
							}
							JOINT Left_Sleeve
							{
								OFFSET 6.592125 -0.646545 0.805568
								CHANNELS 3 Xrotation Yrotation Zrotation
								End Site
								{
									OFFSET -0.000179 20.275787 -0.000000
								}
							}
						}
					}
				}
				JOINT RightShoulder
				{
					OFFSET -5.731700 15.108002 -2.763700
					CHANNELS 3 Xrotation Yrotation Zrotation
					JOINT RightArm
					{
						OFFSET -9.825497 2.506317 -1.597400
						CHANNELS 3 Xrotation Yrotation Zrotation
						JOINT RightForeArm
						{
							OFFSET -21.966242 0.000000 0.000000
							CHANNELS 3 Xrotation Yrotation Zrotation
							JOINT RightHand
							{
								OFFSET -33.879032 0.000000 0.000000
								CHANNELS 3 Xrotation Yrotation Zrotation
								JOINT RightHandThumb1
								{
									OFFSET -6.715286 -2.359680 3.363841
									CHANNELS 3 Xrotation Yrotation Zrotation
									JOINT RightHandThumb2
									{
										OFFSET -2.507072 -1.447464 1.447461
										CHANNELS 3 Xrotation Yrotation Zrotation
										JOINT RightHandThumb3
										{
											OFFSET -2.898338 -1.673355 1.673357
											CHANNELS 3 Xrotation Yrotation Zrotation
											End Site
											{
												OFFSET 0.295959 3.727692 -0.131651
											}
										}
									}
								}
								JOINT RightHandIndex1
								{
									OFFSET -14.190811 -0.254547 3.840278
									CHANNELS 3 Xrotation Yrotation Zrotation
									JOINT RightHandIndex2
									{
										OFFSET -3.551727 0.000000 -0.000000
										CHANNELS 3 Xrotation Yrotation Zrotation
										JOINT RightHandIndex3
										{
											OFFSET -2.894196 0.000000 0.000000
											CHANNELS 3 Xrotation Yrotation Zrotation
											End Site
											{
												OFFSET 1.000603 2.690872 0.366626
											}
										}
									}
								}
								JOINT RightHandMiddle1
								{
									OFFSET -13.776489 0.000000 0.000000
									CHANNELS 3 Xrotation Yrotation Zrotation
									JOINT RightHandMiddle2
									{
										OFFSET -3.438232 0.000000 0.000000
										CHANNELS 3 Xrotation Yrotation Zrotation
										JOINT RightHandMiddle3
										{
											OFFSET -3.691551 0.000000 0.000000
											CHANNELS 3 Xrotation Yrotation Zrotation
											End Site
											{
												OFFSET 1.082298 3.499527 0.457670
											}
										}
									}
								}
								JOINT RightHandRing1
								{
									OFFSET -13.966164 -0.268127 -3.067488
									CHANNELS 3 Xrotation Yrotation Zrotation
									JOINT RightHandRing2
									{
										OFFSET -3.162567 0.000000 0.000000
										CHANNELS 3 Xrotation Yrotation Zrotation
										JOINT RightHandRing3
										{
											OFFSET -3.324348 0.000000 0.000000
											CHANNELS 3 Xrotation Yrotation Zrotation
											End Site
											{
												OFFSET 0.861900 3.184998 0.405154
											}
										}
									}
								}
								JOINT RightHandPinky1
								{
									OFFSET -13.131393 -0.168503 -5.746925
									CHANNELS 3 Xrotation Yrotation Zrotation
									JOINT RightHandPinky2
									{
										OFFSET -2.849182 0.000000 0.000000
										CHANNELS 3 Xrotation Yrotation Zrotation
										JOINT RightHandPinky3
										{
											OFFSET -2.805038 0.000000 0.000000
											CHANNELS 3 Xrotation Yrotation Zrotation
											End Site
											{
												OFFSET 0.882500 2.642609 0.325652
											}
										}
									}
								}
							}
							JOINT Right_Sleeve
							{
								OFFSET -6.592125 -0.646545 0.805568
								CHANNELS 3 Xrotation Yrotation Zrotation
								End Site
								{
									OFFSET 0.000179 20.275787 -0.000000
								}
							}
						}
					}
				}
				JOINT Bind_Right_JacketString
				{
					OFFSET -3.534800 11.969597 7.200700
					CHANNELS 3 Xrotation Yrotation Zrotation
					JOINT Bind_Right_JacketString1
					{
						OFFSET -0.319900 -6.102600 2.794100
						CHANNELS 3 Xrotation Yrotation Zrotation
						End Site
						{
							OFFSET 0.000000 6.719452 0.000000
						}
					}
				}
				JOINT Bind_Left_JacketString
				{
					OFFSET 2.904800 11.969597 7.200700
					CHANNELS 3 Xrotation Yrotation Zrotation
					JOINT Bind_Left_JacketString1
					{
						OFFSET 0.364800 -5.904503 3.186800
						CHANNELS 3 Xrotation Yrotation Zrotation
						End Site
						{
							OFFSET 0.000000 6.719513 0.000000
						}
					}
				}
				JOINT HairE
				{
					OFFSET 5.915200 17.612701 -11.592200
					CHANNELS 3 Xrotation Yrotation Zrotation
					JOINT HairE1
					{
						OFFSET 0.289200 -7.171898 -1.284500
						CHANNELS 3 Xrotation Yrotation Zrotation
						End Site
						{
							OFFSET 0.000000 7.291756 0.000000
						}
					}
				}
				JOINT HairF
				{
					OFFSET -0.864800 17.612701 -11.592200
					CHANNELS 3 Xrotation Yrotation Zrotation
					JOINT HairF1
					{
						OFFSET 0.000000 -14.087097 -2.127501
						CHANNELS 3 Xrotation Yrotation Zrotation
						End Site
						{
							OFFSET 0.000000 14.246841 0.000000
						}
					}
				}
				JOINT HairG
				{
					OFFSET -8.087700 17.612701 -11.592200
					CHANNELS 3 Xrotation Yrotation Zrotation
					JOINT HairG1
					{
						OFFSET -0.293600 -6.081398 -0.910100
						CHANNELS 3 Xrotation Yrotation Zrotation
						End Site
						{
							OFFSET 0.000000 6.156120 0.000000
						}
					}
				}
			}
		}
	}
	JOINT Pouch
	{
		OFFSET 0.000000 4.394501 10.847300
		CHANNELS 3 Xrotation Yrotation Zrotation
		End Site
		{
			OFFSET 0.000000 21.880577 0.000000
		}
	}
	JOINT Bag
	{
		OFFSET -13.229000 4.813004 -0.593300
		CHANNELS 3 Xrotation Yrotation Zrotation
		End Site
		{
			OFFSET 0.000000 21.880577 0.000000
		}
	}
	JOINT OccupyGuyFacialAnim_Joint
	{
		OFFSET 1.000000 -70.206398 -1.655000
		CHANNELS 3 Xrotation Yrotation Zrotation
		End Site
		{
			OFFSET 0.000000 21.880577 0.000000
		}
	}
}
MOTION
Frames: 4
Frame Time: 0.033333
-0.863805 63.626068 0.767580 3.013711 -58.244582 6.565697 -0.000000 -0.000001 0.000000 -32.625946 11.151171 23.547422 43.775529 -8.035061 -9.925832 -13.046670 -2.694499 -7.240005 0.000000 0.000002 0.000000 -0.000000 -0.000001 0.000000 -30.694675 -9.745471 -24.744425 48.823152 2.523361 -7.653073 -22.399879 2.490744 19.772493 0.000000 0.000002 -0.000000 0.000002 0.000000 -0.000001 11.191571 0.099371 -2.783166 8.434578 0.027707 -5.592325 8.457048 0.027861 -5.591860 -21.555964 25.063297 12.062497 -0.293820 25.465729 -3.208724 0.000000 -0.000000 -0.000000 0.000000 -0.000000 -0.000000 0.000000 -0.000000 0.000000 0.000000 -0.000000 -0.000001 0.000000 0.000000 -0.000001 0.000000 -0.000000 -0.000001 0.000000 0.000000 -0.000001 0.000000 -0.000000 -0.000000 0.000000 -0.000000 -0.000000 -6.221653 -11.503809 -4.023763 -23.062234 9.568425 -36.639621 0.046075 -43.168971 -0.011221 22.743816 -5.685950 15.979361 -1.064232 -7.954895 8.490075 2.373411 19.986056 -2.038335 -0.000002 -0.000000 -0.000001 13.340858 -1.006624 10.682266 -0.167584 0.303316 -31.105651 0.000000 -0.000001 -0.000002 8.495418 -0.329587 -0.915337 0.231499 0.661231 -29.901854 -0.000001 0.000001 0.000003 6.111749 3.150941 -16.210950 0.047059 0.322413 -30.125488 -0.000001 -0.000002 0.000002 -5.636063 7.709929 -13.878639 0.224377 0.276561 -46.588334 0.000001 -0.000003 0.000001 -0.000000 0.000000 -0.000003 -5.488233 10.658277 2.466465 -41.473868 -26.755584 30.079084 24.955621 111.862871 -23.308657 -8.702500 12.423131 -9.801873 0.264993 10.061121 -10.888484 1.383788 -17.412842 3.016260 0.000000 0.000000 0.000000 19.443612 11.174452 -13.340193 -0.118651 -0.322745 18.035557 0.000002 -0.000000 0.000002 4.320446 2.436980 -4.811710 0.349103 -0.461258 26.890315 -0.000000 0.000003 0.000001 -7.005627 -10.695123 5.719870 0.111849 -0.089173 26.155825 -0.000003 -0.000003 0.000002 -19.433538 -20.238218 5.987877 0.223808 -0.085773 36.844568 0.000003 0.000004 0.000003 -0.000001 -0.000002 0.000002 -0.000000 0.000003 -0.000001 -0.000001 0.000003 -0.000001 -0.000000 0.000003 -0.000002 -0.000000 0.000003 -0.000002 -0.000000 0.000003 -0.000001 -0.000001 0.000003 -0.000001 -0.000000 0.000003 -0.000002 -0.000000 0.000003 -0.000002 -0.000000 0.000003 -0.000001 -0.000001 0.000003 -0.000001 -0.000000 -0.000001 0.000000 -0.000000 -0.000001 0.000000 -0.000000 -0.000001 0.000000 
-0.864707 63.551575 0.762258 2.569148 -58.208867 6.171712 -0.000000 0.000002 0.000000 -32.619744 11.131147 23.684321 44.104260 -8.244276 -9.975146 -13.187042 -2.696617 -7.167542 0.000000 0.000000 -0.000000 -0.000002 -0.000003 -0.000003 -30.628935 -9.755068 -24.799155 49.177195 2.543628 -7.684116 -22.585031 2.455731 19.780197 -0.000000 0.000000 0.000000 -0.000003 0.000000 -0.000001 11.240832 0.071763 -2.756844 8.472681 0.016137 -5.611533 8.532736 0.028582 -5.606218 -21.352314 24.871041 11.999945 -0.134670 25.348229 -3.097368 0.000000 -0.000000 0.000000 0.000000 -0.000000 0.000000 0.000000 -0.000000 0.000001 0.000000 -0.000000 0.000000 0.000001 -0.000000 0.000000 0.000000 -0.000000 0.000000 0.000001 -0.000000 0.000000 0.000000 -0.000000 0.000000 0.000000 -0.000000 0.000000 -6.195896 -11.527477 -4.035828 -23.229448 9.413347 -36.635755 0.146952 -43.205321 0.057932 22.742880 -5.554055 16.014381 -0.933702 -7.114332 8.833010 2.446184 20.239205 -1.928731 0.000001 -0.000000 -0.000000 13.344514 -1.010627 9.484430 -0.166060 0.304263 -32.303735 -0.000000 0.000001 -0.000002 8.476220 -0.317557 -2.113219 0.238100 0.665233 -31.100023 0.000003 -0.000001 0.000004 6.099486 3.165008 -17.407886 0.047859 0.330680 -31.323510 -0.000001 0.000000 -0.000000 -5.626469 7.717369 -15.075373 0.229173 0.280326 -47.786490 -0.000001 -0.000001 0.000001 0.000002 0.000000 -0.000000 -5.486469 10.649765 2.457665 -41.542959 -26.728379 29.992501 24.970687 111.849689 -23.324896 -8.663841 12.451256 -9.981495 0.311894 9.630404 -11.043290 1.526675 -17.802024 2.861661 0.000001 0.000002 0.000001 19.439319 11.169275 -12.883854 -0.118237 -0.323109 18.492927 -0.000000 0.000001 0.000002 4.317263 2.432638 -4.354018 0.351519 -0.462848 27.347654 -0.000000 0.000001 -0.000002 -6.995604 -10.693913 6.176940 0.111793 -0.092394 26.613234 0.000002 0.000001 0.000000 -19.415885 -20.227834 6.447757 0.225145 -0.087669 37.301917 0.000003 0.000001 0.000001 0.000002 -0.000001 -0.000002 0.000001 -0.000003 0.000003 -0.000001 0.000000 -0.000001 0.000001 -0.000003 0.000003 0.000001 -0.000003 0.000003 0.000001 -0.000003 0.000003 -0.000001 0.000000 -0.000001 0.000001 -0.000003 0.000003 0.000001 -0.000003 0.000003 0.000001 -0.000003 0.000003 -0.000001 0.000000 -0.000001 -0.000000 0.000002 0.000000 -0.000000 0.000002 0.000000 -0.000000 0.000002 0.000000 
-0.895550 63.485680 0.747090 1.652039 -58.077734 5.456001 0.000000 -0.000002 0.000000 -32.354562 11.234509 23.763128 44.329331 -8.616087 -9.990513 -13.279530 -2.705791 -7.068850 0.000000 0.000002 -0.000000 -0.000002 -0.000002 -0.000001 -30.313913 -9.825960 -24.964833 49.581894 2.552550 -7.720246 -22.848757 2.407336 19.782943 -0.000000 -0.000000 -0.000000 0.000000 -0.000000 -0.000000 11.282996 0.064574 -2.735176 8.571478 0.042295 -5.616196 8.630657 0.043985 -5.621661 -21.245974 24.640691 11.923246 -0.062131 25.034931 -2.843796 -0.000000 -0.000001 -0.000001 -0.000000 -0.000001 -0.000001 -0.000000 -0.000001 -0.000001 -0.000000 -0.000001 -0.000001 -0.000000 -0.000000 -0.000001 -0.000000 -0.000001 -0.000001 -0.000000 -0.000000 -0.000001 -0.000000 -0.000001 -0.000001 -0.000000 -0.000001 -0.000001 -6.168028 -11.544949 -4.076267 -23.560577 9.157680 -36.709135 0.579905 -43.292847 0.354964 22.688232 -5.225584 15.618518 -0.788339 -6.150890 9.223321 2.541749 20.566144 -1.789835 -0.000000 0.000001 0.000002 13.348573 -1.015254 8.112347 -0.164330 0.305219 -33.676094 0.000000 -0.000002 -0.000002 8.458633 -0.303299 -3.485401 0.241480 0.669708 -32.472335 -0.000000 0.000001 0.000006 6.085825 3.181446 -18.779002 0.048995 0.340004 -32.695836 0.000000 0.000001 -0.000001 -5.624516 7.725766 -16.446329 0.234680 0.284441 -49.158818 -0.000000 -0.000002 -0.000001 0.000002 0.000002 -0.000001 -5.482556 10.623102 2.438287 -41.670141 -26.629021 29.797318 24.970127 111.851690 -23.324089 -8.628639 12.462046 -10.160881 0.431319 8.498523 -11.449096 1.892712 -18.827505 2.454744 0.000001 0.000003 -0.000001 19.426943 11.152784 -11.682549 -0.117077 -0.324061 19.694943 0.000003 0.000000 -0.000001 4.311932 2.421066 -3.151320 0.354336 -0.467083 28.549607 -0.000003 -0.000000 0.000006 -6.973980 -10.687684 7.379692 0.111669 -0.100799 27.815134 0.000002 -0.000001 -0.000001 -19.377774 -20.205040 7.655238 0.226858 -0.092537 38.503921 0.000003 0.000000 0.000002 -0.000001 -0.000003 -0.000002 0.000001 -0.000001 -0.000000 0.000002 -0.000001 -0.000000 0.000001 -0.000001 0.000001 0.000001 -0.000001 0.000001 0.000001 -0.000001 -0.000000 0.000002 -0.000001 -0.000000 0.000001 -0.000001 0.000001 0.000001 -0.000001 0.000001 0.000001 -0.000001 -0.000000 0.000002 -0.000001 -0.000000 0.000000 -0.000002 0.000000 0.000000 -0.000002 0.000000 0.000000 -0.000002 0.000000 
-0.959106 63.434593 0.727042 0.597623 -57.811998 4.699119 -0.000000 0.000003 0.000001 -31.982303 11.433575 23.759762 44.416898 -9.121630 -9.965645 -13.304329 -2.721092 -6.953028 0.000000 0.000002 -0.000000 0.000004 0.000004 0.000000 -29.865139 -9.931227 -25.203427 49.971863 2.471904 -7.761077 -23.162042 2.342695 19.815907 0.000000 0.000002 0.000000 -0.000001 0.000000 -0.000000 11.360005 0.084448 -2.695421 8.680552 0.087758 -5.597428 8.740653 0.090757 -5.630600 -20.982558 24.391149 11.718072 0.066407 24.580714 -2.558640 -0.000000 -0.000000 -0.000000 -0.000000 -0.000000 -0.000000 -0.000000 -0.000000 0.000000 -0.000000 -0.000000 -0.000000 -0.000000 -0.000000 0.000001 -0.000000 -0.000000 -0.000000 -0.000000 -0.000000 0.000001 -0.000000 -0.000000 -0.000000 -0.000000 -0.000000 -0.000000 -6.162241 -11.520695 -4.160993 -23.916129 8.762624 -36.952307 1.444389 -43.426418 0.950391 22.583734 -4.726374 15.012083 -0.646884 -5.184284 9.612210 2.635134 20.896078 -1.651076 0.000001 0.000001 -0.000001 13.352531 -1.019989 6.736426 -0.162550 0.306391 -35.052090 0.000001 0.000003 0.000002 8.445753 -0.288454 -4.861386 0.244692 0.674019 -33.848392 0.000002 0.000002 0.000003 6.079098 3.198322 -20.154509 0.050790 0.349387 -34.071757 0.000001 0.000002 -0.000001 -5.629585 7.734149 -17.821555 0.240393 0.288539 -50.534773 -0.000001 0.000001 -0.000001 0.000005 -0.000001 -0.000000 -5.472178 10.592681 2.386577 -41.853432 -26.498682 29.521191 24.874921 111.936514 -23.221144 -8.605337 12.412123 -10.346670 0.591394 6.895359 -12.021428 2.402090 -20.283763 1.885250 -0.000001 0.000001 -0.000002 19.418639 11.136827 -9.981239 -0.115417 -0.325385 21.397425 0.000001 -0.000000 -0.000005 4.301765 2.403939 -1.448009 0.358659 -0.472803 30.252079 0.000002 0.000001 -0.000001 -6.955345 -10.685384 9.082733 0.111743 -0.112679 29.517581 -0.000000 0.000002 0.000000 -19.343613 -20.184230 9.362806 0.226864 -0.099245 40.206380 0.000003 0.000002 0.000001 0.000001 0.000001 0.000000 -0.000000 -0.000002 -0.000001 0.000002 -0.000001 0.000001 -0.000000 -0.000002 0.000001 -0.000000 -0.000002 0.000001 -0.000000 -0.000002 -0.000001 0.000002 -0.000001 0.000001 -0.000000 -0.000002 0.000001 -0.000000 -0.000002 0.000001 -0.000000 -0.000002 -0.000001 0.000002 -0.000001 0.000001 -0.000000 0.000003 0.000001 -0.000000 0.000003 0.000001 -0.000000 0.000003 0.000001 
